<svg width="215" height="215" viewBox="0 0 215 215" fill="none" xmlns="http://www.w3.org/2000/svg">
<circle cx="107.5" cy="107.5" r="107.5" fill="#262626"/>
<path d="M81.0807 46L30 70.1005L55.9193 82.4629L31.061 94.4508L82.4449 118.676L106.848 106.938L132.313 118.676L183.242 94.4508L158.232 82.7127L184 70.2254L132.919 46.1249L106.697 58.1127L81.0807 46Z" fill="#FF8C00"/>
<path d="M133.374 130.539L108.667 109.186V169L161.87 143.526V106.314L133.374 130.539Z" fill="#FF8C00"/>
<path d="M105.636 168.875V109.135L80.7776 130.289L52.1299 105.939V143.526L105.636 168.875Z" fill="#FF8C00"/>
<path d="M81.0807 46L30 70.1005L55.9193 82.4629L31.061 94.4508L82.4449 118.676L106.848 106.938L132.313 118.676L183.242 94.4508L158.232 82.7127L184 70.2254L132.919 46.1249L106.697 58.1127L81.0807 46Z" stroke="#FF8C00"/>
<path d="M133.374 130.539L108.667 109.186V169L161.87 143.526V106.314L133.374 130.539Z" stroke="#FF8C00"/>
<path d="M105.636 168.875V109.135L80.7776 130.289L52.1299 105.939V143.526L105.636 168.875Z" stroke="#FF8C00"/>
<path d="M55.9194 82.463L106.697 58.1128L158.232 82.7128L106.849 106.938L55.9194 82.463Z" fill="#262626" stroke="#FF8C00"/>
<path d="M96.6024 96.1991C90.6909 96.5737 86.75 84.3362 94.1772 79.9656C93.625 83.5859 93.8927 85.2167 96.6024 86.5839C98.6179 86.4972 99.5518 86.1954 100.392 84.5859C101.232 82.9764 98.876 76.594 99.7854 73.7219C100.695 70.8499 104.28 67.4872 108.122 64.856C106.769 69.2706 106.758 74.0966 107.516 75.8448C108.274 77.593 112.079 79.5185 114.64 79.3412C114.64 79.3412 115.147 75.7234 113.579 72.2235C118.706 75.42 120.859 77.4708 122.37 81.9636C123.116 82.3939 124.253 90.3449 120.248 93.5768C114.891 97.7542 106.303 100.07 106.758 98.3219C107.213 96.5737 109.967 92.1362 109.941 89.7057C109.716 86.2264 108.79 84.4866 104.939 81.9636C106 90.7047 102.514 95.8245 96.6024 96.1991Z" fill="url(#paint0_linear_9_26)" stroke="#FF8C00"/>
<defs>
<linearGradient id="paint0_linear_9_26" x1="106.614" y1="64.856" x2="106.614" y2="98.91" gradientUnits="userSpaceOnUse">
<stop stop-color="#FFC50D"/>
<stop offset="1" stop-color="#FF8C00"/>
</linearGradient>
</defs>
</svg>
